<svg version="1.1" id="Layer_1" xmlns="http://www.w3.org/2000/svg" xmlns:xlink="http://www.w3.org/1999/xlink" x="0px" y="0px"
	 width="100%" viewBox="0 0 1024 1024" enable-background="new 0 0 1024 1024" xml:space="preserve">
<path fill="#FEFFFF" opacity="1.000000" stroke="none" 
	d="
M449.000000,1025.000000 
	C299.333344,1025.000000 150.166672,1025.000000 1.000000,1025.000000 
	C1.000000,683.666687 1.000000,342.333344 1.000000,1.000000 
	C342.333344,1.000000 683.666687,1.000000 1025.000000,1.000000 
	C1025.000000,342.333344 1025.000000,683.666687 1025.000000,1025.000000 
	C833.166687,1025.000000 641.333313,1025.000000 449.000000,1025.000000 
M419.003265,557.994812 
	C419.003265,557.994812 419.071167,557.953430 418.860687,557.364563 
	C417.738220,556.504150 416.615753,555.643677 415.087036,554.219360 
	C403.448364,545.347229 391.809662,536.475098 379.792603,527.073853 
	C368.932892,518.911743 358.073151,510.749664 346.901642,502.034241 
	C343.304565,499.635193 339.707489,497.236115 336.066193,494.940155 
	C336.066193,494.940155 336.165527,494.887970 336.060516,494.254120 
	C335.399109,493.177979 334.737701,492.101807 334.790405,490.644379 
	C337.587250,490.522217 340.388733,490.228943 343.180267,490.304077 
	C375.576447,491.176361 407.972412,492.062958 440.364288,493.079071 
	C443.736633,493.184845 445.501862,492.197693 446.515198,488.883484 
	C452.002167,470.938080 457.660950,453.045227 464.148804,434.959717 
	C466.472076,434.902466 468.795410,434.793427 471.118622,434.795624 
	C510.514984,434.833160 549.911377,434.890656 589.307739,434.913544 
	C591.191345,434.914642 593.075073,434.636719 596.033813,434.404266 
	C591.830933,423.036896 587.940186,412.513824 584.044922,401.200531 
	C576.172791,378.747498 568.300659,356.294464 560.290100,333.066162 
	C556.477112,322.074280 552.683777,311.075500 548.812866,300.104065 
	C548.510559,299.247345 547.666199,298.581940 546.839233,297.186859 
	C546.227905,294.463074 545.864746,291.654358 544.966553,289.028687 
	C536.623413,264.638641 528.208557,240.272980 519.731812,215.929031 
	C519.188293,214.368088 517.958923,213.045944 516.368530,210.542114 
	C515.207336,213.540665 514.375061,215.275131 513.855469,217.098663 
	C510.484009,228.930725 507.210144,240.790573 503.847748,252.625244 
	C499.264435,268.757111 494.630646,284.874695 489.729889,301.691895 
	C489.138428,303.763824 488.539581,305.833679 487.956604,307.907990 
	C484.013092,321.939301 480.072937,335.971527 475.786804,350.676239 
	C472.492920,362.434937 469.199066,374.193634 465.446838,386.515381 
	C461.198853,401.666077 456.950897,416.816772 452.307770,432.549225 
	C451.224701,436.217224 449.882111,439.833130 449.132446,443.568024 
	C448.402802,447.203308 446.536377,448.512909 442.929108,448.493927 
	C436.772858,448.461487 430.614807,448.937775 424.457397,448.940094 
	C357.508484,448.965302 290.559540,448.938690 223.610626,448.932587 
	C221.279633,448.932373 218.919495,448.791656 216.628983,449.114349 
	C215.328781,449.297485 213.332535,450.087677 213.111816,450.970154 
	C212.840790,452.053864 213.745453,453.961243 214.744064,454.752869 
	C228.428757,465.600311 242.217468,476.316528 256.282471,487.600189 
	C257.439575,488.429718 258.596680,489.259216 260.047943,490.638855 
	C260.741638,491.074188 261.435333,491.509552 262.407043,492.457581 
	C263.205078,492.999176 264.003113,493.540771 265.116516,494.629456 
	C266.288483,495.475586 267.460449,496.321747 269.032471,497.730133 
	C279.119507,505.643005 289.163147,513.612061 299.311462,521.445557 
	C304.551880,525.490662 309.978180,529.294861 315.638031,533.852234 
	C326.404175,542.279846 337.170319,550.707520 348.230194,559.732178 
	C363.925262,571.890747 379.510529,584.195679 395.388519,596.110474 
	C399.641388,599.301819 402.318176,602.557739 401.035034,608.772034 
	C397.713928,624.855286 394.392822,640.938538 390.688904,657.677856 
	C388.519653,667.789673 386.350403,677.901550 383.876404,688.729553 
	C381.613495,699.487427 379.350555,710.245361 376.777771,721.671753 
	C376.491516,723.103394 376.205231,724.535034 375.512726,726.591614 
	C372.711914,738.730713 369.911102,750.869812 366.927002,763.777832 
	C362.135284,784.850830 357.324188,805.919556 352.598755,827.007385 
	C352.307007,828.309326 352.690399,829.762512 352.759674,831.145325 
	C354.053467,830.713318 355.569275,830.577759 356.605469,829.801758 
	C364.054260,824.222778 371.456390,818.578430 378.778290,812.833740 
	C398.869263,797.070740 418.913513,781.248291 439.551270,765.226685 
	C441.756348,763.516663 444.016296,761.872253 446.155426,760.083374 
	C451.133453,755.920532 456.053192,751.688049 461.300598,747.358276 
	C461.500732,747.260315 461.678375,747.131287 462.485535,747.116089 
	C462.972748,746.690369 463.459961,746.264648 464.579041,745.657898 
	C466.345825,744.086792 468.112610,742.515747 470.025757,740.870117 
	C470.025757,740.870117 469.947388,740.725769 470.286499,740.462646 
	C470.539978,740.327393 470.782440,740.174561 471.002350,739.997559 
	C471.002350,739.997559 471.003265,740.006714 471.696075,740.067200 
	C473.788422,738.375427 475.880768,736.683655 478.625366,734.800659 
	C487.409515,727.713684 496.193695,720.626709 505.521301,713.415405 
	C506.166412,712.796265 506.811523,712.177124 507.473907,711.460144 
	C507.473907,711.460144 507.566833,711.495239 508.177826,711.306580 
	C516.116699,704.867249 524.055542,698.427917 532.643555,691.792969 
	C535.909912,689.216797 539.312561,686.794128 542.418640,684.037415 
	C554.346008,673.451416 566.178406,662.758240 578.668762,651.845764 
	C588.671509,641.547363 597.643127,630.520508 603.729309,616.623291 
	C605.565613,609.812805 607.150635,602.922119 609.290955,596.208557 
	C613.629578,582.599426 612.335999,569.251648 608.090759,555.182190 
	C603.054077,539.724365 592.460449,530.133789 576.673340,526.971741 
	C548.013794,521.231384 525.273926,532.230286 505.711121,553.395935 
	C502.235626,556.917480 498.760132,560.439087 495.284637,563.960632 
	C494.700470,563.514465 494.116302,563.068237 493.532135,562.622070 
	C494.436890,559.613892 495.341644,556.605774 496.726532,553.217834 
	C496.926392,552.468506 497.126282,551.719116 497.799683,550.365845 
	C498.455017,548.212402 499.110352,546.059021 500.213684,543.423157 
	C500.613037,541.946106 501.012360,540.469055 501.853424,538.298889 
	C502.608856,534.954163 503.364288,531.609497 504.814667,528.031311 
	C506.917450,521.442261 509.518555,514.962463 510.992371,508.235596 
	C512.695068,500.464020 514.911804,496.852966 519.734497,496.827820 
	C583.060913,496.497528 646.387329,496.165039 709.713806,495.848389 
	C711.427551,495.839813 713.142151,496.001587 714.856384,496.083893 
	C715.125000,496.618011 715.393555,497.152100 715.662170,497.686188 
	C703.380798,508.093292 691.099426,518.500366 678.183533,529.116272 
	C667.605957,538.327332 657.028442,547.538391 645.859558,556.997559 
	C639.606018,564.207092 632.814636,571.028687 627.254272,578.738159 
	C621.970154,586.064697 619.529907,594.737854 620.097412,604.901245 
	C621.672180,626.095154 629.225159,645.827820 634.983154,666.765625 
	C636.165894,671.184082 637.348633,675.602600 638.750732,680.805786 
	C639.883423,684.536011 641.016174,688.266174 642.133911,692.783936 
	C643.109924,696.131287 644.085938,699.478699 645.007446,703.625183 
	C646.045105,707.561707 647.082764,711.498169 648.120422,715.434692 
	C646.071289,715.244629 645.116394,714.648743 644.230530,713.963440 
	C626.210754,700.024109 608.143677,686.144775 590.231995,672.067749 
	C586.628479,669.235779 584.231262,669.317139 580.999146,672.698792 
	C575.840271,678.096313 570.199341,683.044128 564.631348,688.036133 
	C560.468140,691.768555 556.098511,695.270813 550.966125,699.595764 
	C562.190674,707.722290 572.629272,715.279724 583.453430,723.388916 
	C596.918884,733.358337 610.384338,743.327698 624.161255,753.865662 
	C625.553284,755.022888 626.898315,756.242737 628.344604,757.327576 
	C640.616455,766.533020 652.913086,775.705322 665.190002,784.903870 
	C681.142822,796.856628 697.076111,808.835632 713.052734,820.756470 
	C713.971802,821.442139 715.205078,821.706543 717.325134,822.604553 
	C716.837036,819.892517 716.701111,818.293274 716.253174,816.786682 
	C713.573792,807.775024 710.701233,798.819092 708.138794,789.774902 
	C706.483826,783.933472 705.247803,777.973267 703.884094,771.302246 
	C703.451782,769.834595 703.019470,768.367004 702.651062,766.448547 
	C702.579895,766.122192 702.387878,765.900452 702.134583,764.993286 
	C698.756531,752.996460 695.378540,740.999573 692.044617,728.206421 
	C689.148132,717.162292 686.287842,706.108398 683.312073,695.085693 
	C682.913696,693.609924 681.930908,692.291870 681.107056,690.044678 
	C680.855103,687.944153 680.852478,685.776611 680.309021,683.754456 
	C677.638245,673.815491 674.823853,663.915039 672.165161,653.178040 
	C667.885986,637.417847 663.606750,621.657593 659.306458,605.027466 
	C657.718201,600.315491 659.401611,597.025146 663.152161,593.876770 
	C673.976807,584.789978 684.519409,575.367188 695.727173,565.878174 
	C696.259399,565.314209 696.791626,564.750244 697.915283,564.001892 
	C698.942383,562.997314 699.969482,561.992798 701.626160,560.761353 
	C709.414490,553.853943 717.202820,546.946533 725.577881,540.119995 
	C725.985107,539.726135 726.392273,539.332336 727.324524,538.752136 
	C727.539062,538.458191 727.753662,538.164246 728.596313,537.661621 
	C739.962341,527.799561 751.359497,517.972839 762.645935,508.020538 
	C763.766724,507.032318 764.212341,505.278442 765.709656,503.920593 
	C767.115784,503.181549 768.714294,502.670197 769.899048,501.669037 
	C786.131104,487.951843 802.326355,474.190643 818.459167,460.356995 
	C819.847839,459.166290 820.729675,457.384613 821.846924,455.877441 
	C819.927856,455.259369 818.022034,454.594391 816.082092,454.050598 
	C815.465149,453.877655 814.757751,454.029266 814.091736,454.028839 
	C703.864929,453.956665 593.638123,453.906219 483.411530,453.720947 
	C479.497925,453.714386 477.893494,455.004913 476.818054,458.639435 
	C473.803986,468.825562 470.390961,478.893646 466.922668,489.741852 
	C462.264893,504.490356 457.607117,519.238831 452.480896,534.522888 
	C448.932953,545.662781 445.385010,556.802612 441.323608,568.452881 
	C439.485657,577.939758 437.647705,587.426575 435.435760,597.647827 
	C434.895538,605.837769 436.002136,613.595825 438.298157,621.669983 
	C442.053192,634.874878 450.754852,638.868408 461.442200,630.457214 
	C474.637177,620.072449 484.050354,606.357361 494.661102,592.854370 
	C495.814636,591.437195 496.913177,589.970825 498.130463,588.610718 
	C506.854889,578.862671 516.111267,569.820679 529.469727,566.766113 
	C541.980347,563.905396 552.100586,570.211121 554.902405,582.692200 
	C557.079529,592.390442 556.211243,602.078003 553.735840,612.185974 
	C549.889282,618.714539 546.797974,625.877075 541.992737,631.600769 
	C536.745056,637.851379 529.910706,642.769897 523.076965,648.491882 
	C511.364990,657.318420 499.652985,666.144958 487.293976,675.178833 
	C476.531647,683.463562 465.769287,691.748352 454.334259,700.144775 
	C442.763275,709.288147 431.490845,718.839905 419.295563,727.129456 
	C418.887970,726.815491 418.480377,726.501587 418.072815,726.187683 
	C418.381195,723.122681 418.689575,720.057678 419.241516,716.757141 
	C419.353363,716.569885 419.450745,716.375305 420.180267,715.831909 
	C420.288116,715.613281 420.395966,715.394653 420.898865,714.573547 
	C421.936157,709.390747 422.973419,704.208008 424.484558,698.453125 
	C427.561859,684.638245 430.639160,670.823364 434.016571,656.274780 
	C434.301331,655.325684 434.522339,654.351685 434.881378,653.431580 
	C436.981873,648.048584 435.543121,644.638672 430.566284,641.071838 
	C425.781708,637.642761 421.304962,632.708618 418.813782,627.434204 
	C415.865631,621.192200 415.189148,613.877319 413.741974,606.126831 
	C414.248138,600.668762 414.349640,595.134888 415.355591,589.770508 
	C416.853058,581.785217 418.989319,573.919678 421.076233,565.367493 
	C421.072144,564.921265 421.068054,564.474976 421.415894,563.508972 
	C420.626434,561.648926 419.836975,559.788818 419.003265,557.994812 
z"/>
<path fill="#9146A4" opacity="1.000000" stroke="none" 
	d="
M467.135315,489.008301 
	C470.390961,478.893646 473.803986,468.825562 476.818054,458.639435 
	C477.893494,455.004913 479.497925,453.714386 483.411530,453.720947 
	C593.638123,453.906219 703.864929,453.956665 814.091736,454.028839 
	C814.757751,454.029266 815.465149,453.877655 816.082092,454.050598 
	C818.022034,454.594391 819.927856,455.259369 821.846924,455.877441 
	C820.729675,457.384613 819.847839,459.166290 818.459167,460.356995 
	C802.326355,474.190643 786.131104,487.951843 769.899048,501.669037 
	C768.714294,502.670197 767.115784,503.181549 765.347046,503.511780 
	C764.921631,501.970398 764.858765,500.837799 764.864441,500.940430 
	C761.236450,499.350708 757.797180,498.734283 755.657898,496.730164 
	C750.390747,491.796021 744.451660,488.457428 737.636108,486.303864 
	C733.023926,484.846466 728.667603,482.520630 724.012024,481.272308 
	C715.861328,479.086823 708.884644,479.026947 707.612000,490.594330 
	C707.534424,491.298737 707.056763,492.194214 706.483093,492.569519 
	C703.487427,494.529572 692.741028,492.164093 690.149170,489.664337 
	C688.552124,488.124023 686.022034,486.655548 683.934082,486.687225 
	C677.598206,486.783295 671.281982,487.777435 664.941772,488.123352 
	C660.712158,488.354156 656.453369,488.123016 652.210083,488.008728 
	C649.259277,487.929230 646.312500,487.697083 642.424622,487.480896 
	C640.636536,490.233795 637.253052,490.550110 633.255737,488.680298 
	C632.122375,488.150146 630.667725,488.051300 629.385559,488.136017 
	C620.848877,488.699951 612.278381,490.186462 603.798462,489.766541 
	C595.622864,489.361664 588.230103,493.100281 579.580688,491.536591 
	C568.689819,489.567657 557.179016,490.939880 545.937988,491.068268 
	C543.561096,491.095398 541.207031,492.298309 538.819580,492.394989 
	C534.503845,492.569702 530.091736,492.807465 525.864807,492.123535 
	C520.457825,491.248718 515.472900,486.704346 509.604797,491.438416 
	C508.307648,492.484894 505.460114,491.692535 503.332214,491.605957 
	C500.527985,491.491821 497.643402,490.705597 494.943939,491.141235 
	C485.459473,492.671906 476.168091,492.847626 467.135315,489.008301 
z"/>
<path fill="#9445A3" opacity="1.000000" stroke="none" 
	d="
M262.129028,491.944885 
	C261.435333,491.509552 260.741638,491.074188 260.265198,490.296570 
	C260.625549,488.837891 260.768585,487.721497 260.911652,486.605072 
	C259.267456,486.753021 257.292267,483.352051 255.980606,487.065002 
	C242.217468,476.316528 228.428757,465.600311 214.744064,454.752869 
	C213.745453,453.961243 212.840790,452.053864 213.111816,450.970154 
	C213.332535,450.087677 215.328781,449.297485 216.628983,449.114349 
	C218.919495,448.791656 221.279633,448.932373 223.610626,448.932587 
	C290.559540,448.938690 357.508484,448.965302 424.457397,448.940094 
	C430.614807,448.937775 436.772858,448.461487 442.929108,448.493927 
	C446.536377,448.512909 448.402802,447.203308 449.132446,443.568024 
	C449.882111,439.833130 451.224701,436.217224 452.923096,432.302460 
	C456.779144,433.081879 460.019806,434.108063 463.260498,435.134247 
	C457.660950,453.045227 452.002167,470.938080 446.515198,488.883484 
	C445.501862,492.197693 443.736633,493.184845 440.364288,493.079071 
	C407.972412,492.062958 375.576447,491.176361 343.180267,490.304077 
	C340.388733,490.228943 337.587250,490.522217 334.049683,490.827209 
	C332.541748,491.007935 331.774536,491.005798 330.600342,490.951538 
	C326.243408,491.120697 322.283539,491.231323 318.345734,491.587036 
	C310.909180,492.258789 303.480347,493.026428 296.058533,493.846802 
	C292.918488,494.193878 290.623718,493.626099 289.430786,490.198364 
	C289.032043,489.052490 286.704346,487.393585 286.169952,487.678558 
	C283.463074,489.122009 281.331940,488.666290 278.780151,487.255463 
	C277.526581,486.562347 275.410278,486.785980 273.919403,487.289948 
	C269.921539,488.641205 266.050446,490.367523 262.129028,491.944885 
z"/>
<path fill="#7347A9" opacity="1.000000" stroke="none" 
	d="
M554.122559,611.698181 
	C556.211243,602.078003 557.079529,592.390442 554.902405,582.692200 
	C552.100586,570.211121 541.980347,563.905396 529.469727,566.766113 
	C516.111267,569.820679 506.854889,578.862671 498.130463,588.610718 
	C496.913177,589.970825 495.814636,591.437195 494.294373,592.653381 
	C493.317596,592.028198 492.521057,591.110168 492.127319,591.258789 
	C489.229675,592.352905 486.317108,593.482361 483.593567,594.944092 
	C480.007965,596.868469 476.658752,597.716248 472.362427,596.770569 
	C466.411163,595.460632 460.143036,594.704285 454.082947,595.035278 
	C448.552643,595.337280 443.118683,597.403442 437.210541,598.793701 
	C437.150482,598.713074 436.480133,597.813232 435.809784,596.913452 
	C437.647705,587.426575 439.485657,577.939758 441.982239,568.214600 
	C443.755615,567.765991 445.202850,567.927368 445.926453,567.279907 
	C448.762085,564.742798 451.263062,561.830200 454.113373,559.311707 
	C455.261322,558.297424 456.934814,557.672363 458.468658,557.361694 
	C459.832031,557.085510 461.351227,557.686584 462.770020,557.556274 
	C467.513092,557.120544 472.411865,557.131042 476.934357,555.851318 
	C482.937561,554.152771 490.404144,557.834167 495.038391,551.069946 
	C495.151306,550.905151 495.672760,551.020264 496.017090,551.438232 
	C496.102448,552.446899 496.174408,553.022278 496.246399,553.597595 
	C495.341644,556.605774 494.436890,559.613892 493.532135,562.622070 
	C494.116302,563.068237 494.700470,563.514465 495.284637,563.960632 
	C498.760132,560.439087 502.235626,556.917480 506.387207,553.213379 
	C512.233459,554.577271 517.394043,556.157654 522.585205,557.630066 
	C523.292908,557.830811 524.151733,557.462463 524.944031,557.407166 
	C530.141968,557.043701 535.386597,556.083435 540.529663,556.468994 
	C550.699463,557.231323 560.811951,558.751587 570.953308,559.913757 
	C571.574036,559.984863 572.233521,559.619385 572.885071,559.536255 
	C576.553650,559.068237 580.217712,558.441895 583.900757,558.287354 
	C584.960815,558.242920 586.078979,559.582458 587.813904,560.703125 
	C585.014771,562.048584 583.210388,562.915955 580.674622,564.134827 
	C585.104980,565.265442 588.630615,566.165222 592.924255,567.260925 
	C592.158081,561.354431 595.486511,560.436157 599.752747,559.719116 
	C602.671631,559.228577 606.636780,560.009338 608.115662,555.942505 
	C612.335999,569.251648 613.629578,582.599426 609.290955,596.208557 
	C607.150635,602.922119 605.565613,609.812805 603.135986,616.722656 
	C601.733704,616.985291 600.214050,617.174927 600.218994,617.308228 
	C600.374451,621.516052 597.914124,622.356628 594.425659,622.015381 
	C591.269226,621.706604 588.104492,621.476868 584.952881,621.127136 
	C582.668945,620.873657 580.405151,620.241211 578.124084,620.195740 
	C571.621460,620.066101 565.114624,620.150208 559.054749,620.150208 
	C556.921387,616.907654 560.142151,611.581299 554.122559,611.698181 
z"/>
<path fill="#8546A5" opacity="1.000000" stroke="none" 
	d="
M467.028992,489.375061 
	C476.168091,492.847626 485.459473,492.671906 494.943939,491.141235 
	C497.643402,490.705597 500.527985,491.491821 503.332214,491.605957 
	C505.460114,491.692535 508.307648,492.484894 509.604797,491.438416 
	C515.472900,486.704346 520.457825,491.248718 525.864807,492.123535 
	C530.091736,492.807465 534.503845,492.569702 538.819580,492.394989 
	C541.207031,492.298309 543.561096,491.095398 545.937988,491.068268 
	C557.179016,490.939880 568.689819,489.567657 579.580688,491.536591 
	C588.230103,493.100281 595.622864,489.361664 603.798462,489.766541 
	C612.278381,490.186462 620.848877,488.699951 629.385559,488.136017 
	C630.667725,488.051300 632.122375,488.150146 633.255737,488.680298 
	C637.253052,490.550110 640.636536,490.233795 642.424622,487.480896 
	C646.312500,487.697083 649.259277,487.929230 652.210083,488.008728 
	C656.453369,488.123016 660.712158,488.354156 664.941772,488.123352 
	C671.281982,487.777435 677.598206,486.783295 683.934082,486.687225 
	C686.022034,486.655548 688.552124,488.124023 690.149170,489.664337 
	C692.741028,492.164093 703.487427,494.529572 706.483093,492.569519 
	C707.056763,492.194214 707.534424,491.298737 707.612000,490.594330 
	C708.884644,479.026947 715.861328,479.086823 724.012024,481.272308 
	C728.667603,482.520630 733.023926,484.846466 737.636108,486.303864 
	C744.451660,488.457428 750.390747,491.796021 755.657898,496.730164 
	C757.797180,498.734283 761.236450,499.350708 764.864441,500.940430 
	C764.858765,500.837799 764.921631,501.970398 764.977905,503.491455 
	C764.212341,505.278442 763.766724,507.032318 762.645935,508.020538 
	C751.359497,517.972839 739.962341,527.799561 728.280090,537.397034 
	C726.487366,535.932068 725.010864,534.731689 723.469055,533.478210 
	C719.726868,539.644592 714.669495,542.363647 708.773926,543.867004 
	C706.668640,544.403870 704.589905,545.044312 702.499023,545.637512 
	C702.464478,546.176575 702.429932,546.715698 702.395386,547.254761 
	C700.258240,545.589600 698.121155,543.924377 695.881958,542.179626 
	C691.008606,545.973755 685.782654,543.685425 681.181091,542.209961 
	C674.711853,540.135498 674.576538,537.597656 679.044556,532.632263 
	C679.628113,531.983704 678.925110,530.177429 678.817993,528.907471 
	C691.099426,518.500366 703.380798,508.093292 715.662170,497.686188 
	C715.393555,497.152100 715.125000,496.618011 714.856384,496.083893 
	C713.142151,496.001587 711.427551,495.839813 709.713806,495.848389 
	C646.387329,496.165039 583.060913,496.497528 519.734497,496.827820 
	C514.911804,496.852966 512.695068,500.464020 510.992371,508.235596 
	C509.518555,514.962463 506.917450,521.442261 504.410278,527.794678 
	C503.200195,525.121704 502.419525,524.716736 500.311890,526.819946 
	C499.049500,528.079651 496.351074,529.029907 494.725189,528.579041 
	C490.278015,527.345764 486.162628,526.110474 482.077393,529.515198 
	C481.742676,529.794189 480.045227,528.392639 478.954529,527.822510 
	C477.791382,527.214539 476.584015,526.177917 475.418976,526.208435 
	C473.720276,526.252869 472.042145,527.083618 470.366180,527.575928 
	C470.817627,529.155334 471.170410,530.389587 471.607391,531.918396 
	C470.495178,531.785522 469.922180,531.876892 469.542572,531.647827 
	C463.828552,528.199585 462.546082,528.425171 457.132599,533.004700 
	C456.158325,533.828918 454.364685,533.684509 452.949371,533.987366 
	C457.607117,519.238831 462.264893,504.490356 467.028992,489.375061 
z"/>
<path fill="#A445A2" opacity="1.000000" stroke="none" 
	d="
M463.704651,435.046997 
	C460.019806,434.108063 456.779144,433.081879 453.120697,432.011597 
	C456.950897,416.816772 461.198853,401.666077 465.964355,386.457123 
	C470.464874,389.234131 474.435883,392.086639 478.453217,394.872345 
	C478.779510,395.098602 479.423157,394.875427 479.918640,394.848175 
	C485.036102,394.566986 490.150360,394.150208 495.271545,394.031311 
	C502.842407,393.855530 510.418152,393.845215 517.991821,393.846344 
	C531.382141,393.848297 544.772644,393.940796 558.162537,393.882507 
	C559.023621,393.878784 559.880554,392.909882 561.596802,391.870911 
	C557.023743,390.930695 553.507996,390.207886 549.992249,389.485046 
	C549.989258,388.823059 549.986206,388.161072 549.983215,387.499054 
	C551.843506,387.236084 553.702087,386.762177 555.564331,386.747467 
	C562.749817,386.690643 570.190491,387.587036 575.600769,380.304749 
	C576.203430,382.625214 576.279419,384.748566 576.189087,386.864838 
	C575.931152,392.906525 573.668701,399.452057 580.658569,403.609772 
	C581.748535,403.089325 582.898987,402.540009 584.049438,401.990723 
	C587.940186,412.513824 591.830933,423.036896 596.033813,434.404266 
	C593.075073,434.636719 591.191345,434.914642 589.307739,434.913544 
	C549.911377,434.890656 510.514984,434.833160 471.118622,434.795624 
	C468.795410,434.793427 466.472076,434.902466 463.704651,435.046997 
z"/>
<path fill="#B045A0" opacity="1.000000" stroke="none" 
	d="
M584.047180,401.595642 
	C582.898987,402.540009 581.748535,403.089325 580.658569,403.609772 
	C573.668701,399.452057 575.931152,392.906525 576.189087,386.864838 
	C576.279419,384.748566 576.203430,382.625214 575.600769,380.304749 
	C570.190491,387.587036 562.749817,386.690643 555.564331,386.747467 
	C553.702087,386.762177 551.843506,387.236084 549.983215,387.499054 
	C549.986206,388.161072 549.989258,388.823059 549.992249,389.485046 
	C553.507996,390.207886 557.023743,390.930695 561.596802,391.870911 
	C559.880554,392.909882 559.023621,393.878784 558.162537,393.882507 
	C544.772644,393.940796 531.382141,393.848297 517.991821,393.846344 
	C510.418152,393.845215 502.842407,393.855530 495.271545,394.031311 
	C490.150360,394.150208 485.036102,394.566986 479.918640,394.848175 
	C479.423157,394.875427 478.779510,395.098602 478.453217,394.872345 
	C474.435883,392.086639 470.464874,389.234131 466.193542,386.175598 
	C469.199066,374.193634 472.492920,362.434937 476.350220,350.329926 
	C478.523560,349.694916 480.140717,349.128418 481.741943,349.170380 
	C486.258606,349.288788 490.785217,350.037445 495.277679,349.841949 
	C502.931854,349.508820 510.596588,347.883331 518.194214,348.219086 
	C525.645447,348.548431 532.548035,348.963776 537.975891,342.734375 
	C538.425720,342.218109 539.485657,342.215363 540.272339,342.013824 
	C543.883728,341.088501 547.643982,340.537994 551.070740,339.157745 
	C554.368774,337.829315 557.323242,335.648041 560.428589,333.841431 
	C568.300659,356.294464 576.172791,378.747498 584.047180,401.595642 
z"/>
<path fill="#4A4AAE" opacity="1.000000" stroke="none" 
	d="
M681.218750,690.900757 
	C681.930908,692.291870 682.913696,693.609924 683.312073,695.085693 
	C686.287842,706.108398 689.148132,717.162292 691.650269,728.676270 
	C687.475830,736.495972 687.597961,736.227417 679.384949,732.491821 
	C676.803101,731.317383 673.373413,731.967285 670.328979,731.869080 
	C669.111633,731.829712 667.392456,732.591675 666.742615,732.024780 
	C660.900146,726.928040 654.026733,729.926514 647.763855,729.835449 
	C641.242981,729.740540 635.840881,727.940125 634.582642,721.904541 
	C632.024719,723.283691 629.886108,724.748230 627.526489,725.601685 
	C625.894104,726.192139 623.840210,726.377319 622.188721,725.938293 
	C620.574646,725.509094 619.232178,724.058533 617.770447,723.056335 
	C617.723328,723.596619 617.676270,724.136902 617.629150,724.677246 
	C614.415588,724.949646 611.205811,725.291992 607.987000,725.467041 
	C606.199463,725.564209 604.096252,724.755798 602.658508,725.445862 
	C598.667236,727.361389 595.236877,726.455383 592.193420,723.950012 
	C589.245178,721.523193 586.336243,721.348022 583.067871,722.837219 
	C572.629272,715.279724 562.190674,707.722290 550.966125,699.595764 
	C556.098511,695.270813 560.468140,691.768555 564.631348,688.036133 
	C570.199341,683.044128 575.840271,678.096313 580.999146,672.698792 
	C584.231262,669.317139 586.628479,669.235779 590.231995,672.067749 
	C608.143677,686.144775 626.210754,700.024109 644.230530,713.963440 
	C645.116394,714.648743 646.071289,715.244629 648.120422,715.434692 
	C647.082764,711.498169 646.045105,707.561707 645.074890,702.878235 
	C645.663818,700.880981 646.185303,699.630676 647.268555,697.033691 
	C647.841064,700.169861 648.146912,701.844971 648.296692,702.665344 
	C650.799438,703.389038 652.700134,703.924011 654.591797,704.488953 
	C657.904602,705.478210 660.801208,705.247803 662.592102,701.781494 
	C663.412109,700.194214 664.188965,698.584717 665.352295,696.993591 
	C667.584473,697.897156 669.449707,698.792358 671.094482,699.581726 
	C674.534241,696.632385 677.876465,693.766541 681.218750,690.900757 
z"/>
<path fill="#8546A5" opacity="1.000000" stroke="none" 
	d="
M262.268036,492.201233 
	C266.050446,490.367523 269.921539,488.641205 273.919403,487.289948 
	C275.410278,486.785980 277.526581,486.562347 278.780151,487.255463 
	C281.331940,488.666290 283.463074,489.122009 286.169952,487.678558 
	C286.704346,487.393585 289.032043,489.052490 289.430786,490.198364 
	C290.623718,493.626099 292.918488,494.193878 296.058533,493.846802 
	C303.480347,493.026428 310.909180,492.258789 318.345734,491.587036 
	C322.283539,491.231323 326.243408,491.120697 330.606171,491.324402 
	C332.734497,492.795563 334.450012,493.841766 336.165527,494.887970 
	C336.165527,494.887970 336.066193,494.940155 336.102966,495.259338 
	C337.086029,497.053009 338.454987,498.410034 338.903290,500.022919 
	C340.572113,506.027100 342.264984,506.625854 347.213440,502.587555 
	C358.073151,510.749664 368.932892,518.911743 379.830933,527.687317 
	C378.930542,529.925293 377.991852,531.549805 377.473358,532.447144 
	C379.681946,534.091858 381.269806,535.274292 382.857666,536.456787 
	C380.923584,537.074219 379.010742,537.772522 377.049622,538.286804 
	C374.982483,538.828857 372.888458,539.373962 370.772217,539.601562 
	C366.141052,540.099609 360.410858,542.281250 357.075623,540.373352 
	C350.724701,536.740173 344.032104,540.462219 337.899139,537.395508 
	C334.845978,535.868835 330.716797,536.622009 327.138855,535.982849 
	C323.161072,535.272339 319.256775,534.150635 315.320465,533.207947 
	C309.978180,529.294861 304.551880,525.490662 299.311462,521.445557 
	C289.163147,513.612061 279.119507,505.643005 269.187225,497.299164 
	C270.280060,496.051575 271.218140,495.234985 272.156250,494.418365 
	C271.948242,493.985168 271.740234,493.551971 271.532227,493.118774 
	C269.288544,493.439972 267.044861,493.761139 264.801178,494.082336 
	C264.003113,493.540771 263.205078,492.999176 262.268036,492.201233 
z"/>
<path fill="#BF449E" opacity="1.000000" stroke="none" 
	d="
M560.359375,333.453796 
	C557.323242,335.648041 554.368774,337.829315 551.070740,339.157745 
	C547.643982,340.537994 543.883728,341.088501 540.272339,342.013824 
	C539.485657,342.215363 538.425720,342.218109 537.975891,342.734375 
	C532.548035,348.963776 525.645447,348.548431 518.194214,348.219086 
	C510.596588,347.883331 502.931854,349.508820 495.277679,349.841949 
	C490.785217,350.037445 486.258606,349.288788 481.741943,349.170380 
	C480.140717,349.128418 478.523560,349.694916 476.522675,349.993530 
	C480.072937,335.971527 484.013092,321.939301 487.956604,307.907990 
	C488.539581,305.833679 489.138428,303.763824 490.217102,301.406647 
	C491.460754,302.272797 492.217255,303.424164 492.161743,303.339661 
	C496.701782,302.707001 501.073853,300.736267 504.204224,301.954987 
	C510.077301,304.241547 515.580505,304.443268 521.512695,303.373566 
	C523.206604,303.068085 526.247253,304.324768 526.639587,303.662323 
	C529.290100,299.187378 533.635742,299.023102 537.890198,298.493774 
	C539.806396,298.255371 541.753174,298.269287 543.684204,298.140442 
	C544.815918,298.064941 545.944031,297.933746 547.073730,297.827637 
	C547.666199,298.581940 548.510559,299.247345 548.812866,300.104065 
	C552.683777,311.075500 556.477112,322.074280 560.359375,333.453796 
z"/>
<path fill="#3C4AAF" opacity="1.000000" stroke="none" 
	d="
M583.260620,723.113037 
	C586.336243,721.348022 589.245178,721.523193 592.193420,723.950012 
	C595.236877,726.455383 598.667236,727.361389 602.658508,725.445862 
	C604.096252,724.755798 606.199463,725.564209 607.987000,725.467041 
	C611.205811,725.291992 614.415588,724.949646 617.629150,724.677246 
	C617.676270,724.136902 617.723328,723.596619 617.770447,723.056335 
	C619.232178,724.058533 620.574646,725.509094 622.188721,725.938293 
	C623.840210,726.377319 625.894104,726.192139 627.526489,725.601685 
	C629.886108,724.748230 632.024719,723.283691 634.582642,721.904541 
	C635.840881,727.940125 641.242981,729.740540 647.763855,729.835449 
	C654.026733,729.926514 660.900146,726.928040 666.742615,732.024780 
	C667.392456,732.591675 669.111633,731.829712 670.328979,731.869080 
	C673.373413,731.967285 676.803101,731.317383 679.384949,732.491821 
	C687.597961,736.227417 687.475830,736.495972 691.628296,729.074463 
	C695.378540,740.999573 698.756531,752.996460 702.134399,765.597595 
	C702.211182,766.482544 702.362122,766.715027 702.587158,766.899353 
	C703.019470,768.367004 703.451782,769.834595 703.556274,771.862671 
	C702.012390,776.546997 700.106689,779.110962 695.443542,776.121521 
	C694.842712,775.736389 693.750366,776.211731 692.990417,775.965515 
	C688.010132,774.351440 682.295898,773.666626 678.315002,770.684570 
	C674.434082,767.777283 671.934814,765.921875 668.729797,769.639099 
	C665.658875,768.298035 663.061890,767.163940 660.464844,766.029846 
	C659.239441,763.061951 657.683289,759.533325 655.133972,758.531128 
	C650.220825,756.599609 644.776001,755.434204 639.495605,755.196716 
	C634.709106,754.981445 629.995667,755.720276 625.829102,752.549622 
	C625.531372,752.322998 624.526062,753.026184 623.849792,753.297058 
	C610.384338,743.327698 596.918884,733.358337 583.260620,723.113037 
z"/>
<path fill="#CC449E" opacity="1.000000" stroke="none" 
	d="
M546.956482,297.507263 
	C545.944031,297.933746 544.815918,298.064941 543.684204,298.140442 
	C541.753174,298.269287 539.806396,298.255371 537.890198,298.493774 
	C533.635742,299.023102 529.290100,299.187378 526.639587,303.662323 
	C526.247253,304.324768 523.206604,303.068085 521.512695,303.373566 
	C515.580505,304.443268 510.077301,304.241547 504.204224,301.954987 
	C501.073853,300.736267 496.701782,302.707001 492.161743,303.339661 
	C492.217255,303.424164 491.460754,302.272797 490.361389,301.059875 
	C494.630646,284.874695 499.264435,268.757111 503.847748,252.625244 
	C507.210144,240.790573 510.484009,228.930725 513.855469,217.098663 
	C514.375061,215.275131 515.207336,213.540665 516.368530,210.542114 
	C517.958923,213.045944 519.188293,214.368088 519.731812,215.929031 
	C528.208557,240.272980 536.623413,264.638641 544.966553,289.028687 
	C545.864746,291.654358 546.227905,294.463074 546.956482,297.507263 
z"/>
<path fill="#3C4AAF" opacity="1.000000" stroke="none" 
	d="
M367.110291,763.008911 
	C369.911102,750.869812 372.711914,738.730713 376.042053,726.327637 
	C378.381256,728.840637 379.909454,731.863831 382.069519,734.334656 
	C385.027161,737.717773 388.784668,737.096680 392.491943,735.392273 
	C392.870789,735.218140 393.444366,735.460510 393.926453,735.518982 
	C397.981873,736.011414 402.031464,736.558838 406.093658,736.986511 
	C411.112335,737.514954 416.275299,738.900574 421.138306,738.219482 
	C431.527649,736.764160 441.763947,734.216431 451.339355,732.263855 
	C453.197998,733.753723 454.425964,735.563354 455.821838,735.703796 
	C460.181274,736.142273 464.604156,735.949951 469.048889,736.331543 
	C469.731293,737.776184 470.367279,738.891418 471.003296,740.006714 
	C471.003265,740.006714 471.002350,739.997559 470.794434,740.062317 
	C470.315796,740.265076 470.102753,740.464661 469.947388,740.725769 
	C469.947388,740.725769 470.025757,740.870117 469.537109,740.923096 
	C467.253876,740.976135 465.459320,740.976135 463.430267,740.976135 
	C463.640289,742.951904 463.793762,744.395447 463.947205,745.838989 
	C463.459961,746.264648 462.972748,746.690369 462.005676,747.104248 
	C461.334839,747.203247 461.158417,747.333679 460.996552,747.483826 
	C456.053192,751.688049 451.133453,755.920532 446.155426,760.083374 
	C444.016296,761.872253 441.756348,763.516663 439.244751,764.984009 
	C437.626282,764.324463 436.260010,763.431763 435.011993,763.574280 
	C429.973358,764.149841 425.184937,766.610596 419.818024,764.190552 
	C417.741180,763.254028 413.826569,763.132629 412.497955,764.430237 
	C409.010284,767.836670 405.165466,766.845581 401.305359,766.885071 
	C400.350616,766.894836 399.304504,766.280151 398.450348,766.509949 
	C391.210938,768.458191 383.957367,770.382446 376.819244,772.662048 
	C374.524567,773.394897 372.561829,775.166870 370.289062,776.560425 
	C370.241699,776.024414 370.295105,774.609131 369.965240,773.289551 
	C369.103027,769.840271 368.073273,766.432983 367.110291,763.008911 
z"/>
<path fill="#7D46A7" opacity="1.000000" stroke="none" 
	d="
M608.103210,555.562378 
	C606.636780,560.009338 602.671631,559.228577 599.752747,559.719116 
	C595.486511,560.436157 592.158081,561.354431 592.924255,567.260925 
	C588.630615,566.165222 585.104980,565.265442 580.674622,564.134827 
	C583.210388,562.915955 585.014771,562.048584 587.813904,560.703125 
	C586.078979,559.582458 584.960815,558.242920 583.900757,558.287354 
	C580.217712,558.441895 576.553650,559.068237 572.885071,559.536255 
	C572.233521,559.619385 571.574036,559.984863 570.953308,559.913757 
	C560.811951,558.751587 550.699463,557.231323 540.529663,556.468994 
	C535.386597,556.083435 530.141968,557.043701 524.944031,557.407166 
	C524.151733,557.462463 523.292908,557.830811 522.585205,557.630066 
	C517.394043,556.157654 512.233459,554.577271 506.673401,553.019714 
	C525.273926,532.230286 548.013794,521.231384 576.673340,526.971741 
	C592.460449,530.133789 603.054077,539.724365 608.103210,555.562378 
z"/>
<path fill="#444AB1" opacity="1.000000" stroke="none" 
	d="
M469.002441,736.002136 
	C464.604156,735.949951 460.181274,736.142273 455.821838,735.703796 
	C454.425964,735.563354 453.197998,733.753723 451.339355,732.263855 
	C441.763947,734.216431 431.527649,736.764160 421.138306,738.219482 
	C416.275299,738.900574 411.112335,737.514954 406.093658,736.986511 
	C402.031464,736.558838 397.981873,736.011414 393.926453,735.518982 
	C393.444366,735.460510 392.870789,735.218140 392.491943,735.392273 
	C388.784668,737.096680 385.027161,737.717773 382.069519,734.334656 
	C379.909454,731.863831 378.381256,728.840637 376.245178,726.015137 
	C376.205231,724.535034 376.491516,723.103394 377.270050,721.279175 
	C379.927185,717.274231 384.425690,718.714966 386.794617,717.164429 
	C393.495544,712.778320 399.195770,716.450989 404.625305,718.458618 
	C408.114777,719.748840 409.743042,719.543030 412.373688,717.506653 
	C414.602478,715.781250 416.817902,712.425781 420.503815,715.176086 
	C420.395966,715.394653 420.288116,715.613281 419.733093,716.101501 
	C419.138672,716.554443 419.042664,716.761658 418.997955,716.992737 
	C418.689575,720.057678 418.381195,723.122681 418.072815,726.187683 
	C418.480377,726.501587 418.887970,726.815491 419.295563,727.129456 
	C431.490845,718.839905 442.763275,709.288147 454.669159,700.487793 
	C454.248352,702.500610 453.846466,704.500122 452.662292,705.770569 
	C450.296844,708.308411 450.811432,710.504333 453.820068,710.648193 
	C458.650024,710.879089 464.331879,711.360718 468.188141,709.163818 
	C472.677582,706.606262 475.809814,706.494995 479.846802,708.876587 
	C488.333405,713.883240 496.871185,717.483704 505.230743,708.566956 
	C505.392059,708.394836 505.840424,708.491821 506.436188,708.437744 
	C506.798920,709.418640 507.182892,710.456909 507.566833,711.495239 
	C507.566833,711.495239 507.473907,711.460144 507.133759,711.358398 
	C506.188324,712.017700 505.583069,712.778687 504.977844,713.539673 
	C496.193695,720.626709 487.409515,727.713684 477.922424,734.852661 
	C474.480469,735.270508 471.741455,735.636353 469.002441,736.002136 
z"/>
<path fill="#334BB1" opacity="1.000000" stroke="none" 
	d="
M367.018646,763.393372 
	C368.073273,766.432983 369.103027,769.840271 369.965240,773.289551 
	C370.295105,774.609131 370.241699,776.024414 370.289062,776.560425 
	C372.561829,775.166870 374.524567,773.394897 376.819244,772.662048 
	C383.957367,770.382446 391.210938,768.458191 398.450348,766.509949 
	C399.304504,766.280151 400.350616,766.894836 401.305359,766.885071 
	C405.165466,766.845581 409.010284,767.836670 412.497955,764.430237 
	C413.826569,763.132629 417.741180,763.254028 419.818024,764.190552 
	C425.184937,766.610596 429.973358,764.149841 435.011993,763.574280 
	C436.260010,763.431763 437.626282,764.324463 438.957245,765.095337 
	C418.913513,781.248291 398.869263,797.070740 378.778290,812.833740 
	C371.456390,818.578430 364.054260,824.222778 356.605469,829.801758 
	C355.569275,830.577759 354.053467,830.713318 352.759674,831.145325 
	C352.690399,829.762512 352.307007,828.309326 352.598755,827.007385 
	C357.324188,805.919556 362.135284,784.850830 367.018646,763.393372 
z"/>
<path fill="#7D46A7" opacity="1.000000" stroke="none" 
	d="
M315.479248,533.530090 
	C319.256775,534.150635 323.161072,535.272339 327.138855,535.982849 
	C330.716797,536.622009 334.845978,535.868835 337.899139,537.395508 
	C344.032104,540.462219 350.724701,536.740173 357.075623,540.373352 
	C360.410858,542.281250 366.141052,540.099609 370.772217,539.601562 
	C372.888458,539.373962 374.982483,538.828857 377.049622,538.286804 
	C379.010742,537.772522 380.923584,537.074219 382.857666,536.456787 
	C381.269806,535.274292 379.681946,534.091858 377.473358,532.447144 
	C377.991852,531.549805 378.930542,529.925293 380.020142,527.951904 
	C391.809662,536.475098 403.448364,545.347229 414.877991,554.562744 
	C413.516754,555.401184 412.364563,555.896179 411.212402,556.391174 
	C411.313965,556.911926 411.415558,557.432678 411.517151,557.953430 
	C414.035156,557.953430 416.553162,557.953430 419.071167,557.953430 
	C419.071167,557.953430 419.003265,557.994812 419.015869,558.340820 
	C419.706970,560.467468 420.385468,562.248108 421.063965,564.028748 
	C421.068054,564.474976 421.072144,564.921265 420.632385,565.729492 
	C419.059753,566.914795 417.931000,567.738159 417.274628,568.216980 
	C415.775421,566.403137 414.442993,564.791138 413.110535,563.179077 
	C411.869995,564.945374 410.629425,566.711731 410.028564,567.567200 
	C402.825867,567.567200 395.823853,567.862915 388.859039,567.480713 
	C382.409698,567.126770 375.308014,571.586243 369.560852,565.160339 
	C369.315796,564.886353 368.551666,565.149719 368.116852,564.960999 
	C363.503052,562.958984 358.992859,560.672424 354.263336,559.005554 
	C352.400909,558.349243 350.059692,559.051514 347.936493,559.135132 
	C337.170319,550.707520 326.404175,542.279846 315.479248,533.530090 
z"/>
<path fill="#7347A9" opacity="1.000000" stroke="none" 
	d="
M695.172729,566.076355 
	C684.519409,575.367188 673.976807,584.789978 663.152161,593.876770 
	C659.401611,597.025146 657.718201,600.315491 658.928345,605.536316 
	C657.996216,606.955627 657.133057,607.805969 656.941956,608.787109 
	C656.133240,612.941162 653.428894,613.984619 649.739990,613.354919 
	C647.646851,612.997681 645.632812,612.154175 643.536560,611.846008 
	C641.847046,611.597656 640.087524,611.851257 638.359558,611.832581 
	C636.356201,611.810913 634.240173,612.128784 632.376221,611.592773 
	C629.418030,610.742249 626.628540,609.305420 623.767700,608.116638 
	C623.913208,607.996399 624.058777,607.876160 624.204285,607.755920 
	C622.895203,606.507812 621.586121,605.259644 620.277039,604.011536 
	C619.529907,594.737854 621.970154,586.064697 627.254272,578.738159 
	C632.814636,571.028687 639.606018,564.207092 646.506165,557.016602 
	C653.343628,559.524902 644.849121,562.755554 647.697388,565.421448 
	C652.522888,566.803040 657.159790,569.612122 662.717896,568.142944 
	C663.799988,567.856995 665.481262,569.025208 666.612976,569.882996 
	C671.038757,573.237427 676.367981,572.324585 680.906006,569.715759 
	C685.030701,567.344604 689.413574,563.151611 695.172729,566.076355 
z"/>
<path fill="#6249AA" opacity="1.000000" stroke="none" 
	d="
M620.187256,604.456421 
	C621.586121,605.259644 622.895203,606.507812 624.204285,607.755920 
	C624.058777,607.876160 623.913208,607.996399 623.767700,608.116638 
	C626.628540,609.305420 629.418030,610.742249 632.376221,611.592773 
	C634.240173,612.128784 636.356201,611.810913 638.359558,611.832581 
	C640.087524,611.851257 641.847046,611.597656 643.536560,611.846008 
	C645.632812,612.154175 647.646851,612.997681 649.739990,613.354919 
	C653.428894,613.984619 656.133240,612.941162 656.941956,608.787109 
	C657.133057,607.805969 657.996216,606.955627 658.938843,605.971313 
	C663.606750,621.657593 667.885986,637.417847 671.751831,653.623657 
	C664.352356,659.788940 656.770081,659.451355 649.065918,656.046326 
	C648.104004,657.430420 647.301025,658.585938 646.773438,659.345093 
	C643.815125,658.484985 641.270325,657.745056 639.425171,657.208557 
	C637.719116,660.616028 636.374329,663.301941 635.029541,665.987854 
	C629.225159,645.827820 621.672180,626.095154 620.187256,604.456421 
z"/>
<path fill="#6249AA" opacity="1.000000" stroke="none" 
	d="
M553.929199,611.942078 
	C560.142151,611.581299 556.921387,616.907654 559.054749,620.150208 
	C565.114624,620.150208 571.621460,620.066101 578.124084,620.195740 
	C580.405151,620.241211 582.668945,620.873657 584.952881,621.127136 
	C588.104492,621.476868 591.269226,621.706604 594.425659,622.015381 
	C597.914124,622.356628 600.374451,621.516052 600.218994,617.308228 
	C600.214050,617.174927 601.733704,616.985291 602.880615,616.958252 
	C597.643127,630.520508 588.671509,641.547363 578.224609,651.668152 
	C577.244202,650.750183 576.707947,650.009827 576.711365,650.014526 
	C573.770142,652.157898 571.211548,654.180298 568.490784,655.953918 
	C566.413025,657.308228 563.769287,657.962219 562.012390,659.606262 
	C558.245728,663.131104 555.670349,662.927185 552.770691,658.682922 
	C551.552246,656.899414 549.707397,654.591370 547.899597,654.345886 
	C542.927246,653.670593 537.781006,653.508423 532.783142,653.982117 
	C526.476501,654.579895 524.447937,653.655518 523.767944,648.269043 
	C529.910706,642.769897 536.745056,637.851379 541.992737,631.600769 
	C546.797974,625.877075 549.889282,618.714539 553.929199,611.942078 
z"/>
<path fill="#5549AD" opacity="1.000000" stroke="none" 
	d="
M523.422485,648.380493 
	C524.447937,653.655518 526.476501,654.579895 532.783142,653.982117 
	C537.781006,653.508423 542.927246,653.670593 547.899597,654.345886 
	C549.707397,654.591370 551.552246,656.899414 552.770691,658.682922 
	C555.670349,662.927185 558.245728,663.131104 562.012390,659.606262 
	C563.769287,657.962219 566.413025,657.308228 568.490784,655.953918 
	C571.211548,654.180298 573.770142,652.157898 576.711365,650.014526 
	C576.707947,650.009827 577.244202,650.750183 577.913330,651.797852 
	C566.178406,662.758240 554.346008,673.451416 542.418640,684.037415 
	C539.312561,686.794128 535.909912,689.216797 532.306702,691.499634 
	C530.153809,690.216980 528.389832,688.511292 526.511841,688.374939 
	C521.240356,687.992004 517.193604,682.717590 511.350037,684.763977 
	C510.759277,684.970825 509.695007,683.906311 508.881531,683.383484 
	C503.785645,680.108032 498.598114,677.523254 492.339355,680.321838 
	C491.250854,680.808472 489.911285,680.733582 489.077454,680.859375 
	C488.632935,678.556519 488.286957,676.764038 487.940979,674.971497 
	C499.652985,666.144958 511.364990,657.318420 523.422485,648.380493 
z"/>
<path fill="#334BB1" opacity="1.000000" stroke="none" 
	d="
M624.005493,753.581360 
	C624.526062,753.026184 625.531372,752.322998 625.829102,752.549622 
	C629.995667,755.720276 634.709106,754.981445 639.495605,755.196716 
	C644.776001,755.434204 650.220825,756.599609 655.133972,758.531128 
	C657.683289,759.533325 659.239441,763.061951 660.464844,766.029846 
	C663.061890,767.163940 665.658875,768.298035 668.729797,769.639099 
	C671.934814,765.921875 674.434082,767.777283 678.315002,770.684570 
	C682.295898,773.666626 688.010132,774.351440 692.990417,775.965515 
	C693.750366,776.211731 694.842712,775.736389 695.443542,776.121521 
	C700.106689,779.110962 702.012390,776.546997 703.526245,772.244751 
	C705.247803,777.973267 706.483826,783.933472 708.138794,789.774902 
	C710.701233,798.819092 713.573792,807.775024 716.253174,816.786682 
	C716.701111,818.293274 716.837036,819.892517 717.325134,822.604553 
	C715.205078,821.706543 713.971802,821.442139 713.052734,820.756470 
	C697.076111,808.835632 681.142822,796.856628 665.190002,784.903870 
	C652.913086,775.705322 640.616455,766.533020 628.344604,757.327576 
	C626.898315,756.242737 625.553284,755.022888 624.005493,753.581360 
z"/>
<path fill="#4A4AAE" opacity="1.000000" stroke="none" 
	d="
M487.617462,675.075195 
	C488.286957,676.764038 488.632935,678.556519 489.077454,680.859375 
	C489.911285,680.733582 491.250854,680.808472 492.339355,680.321838 
	C498.598114,677.523254 503.785645,680.108032 508.881531,683.383484 
	C509.695007,683.906311 510.759277,684.970825 511.350037,684.763977 
	C517.193604,682.717590 521.240356,687.992004 526.511841,688.374939 
	C528.389832,688.511292 530.153809,690.216980 531.982117,691.597412 
	C524.055542,698.427917 516.116699,704.867249 507.872314,711.400879 
	C507.182892,710.456909 506.798920,709.418640 506.436188,708.437744 
	C505.840424,708.491821 505.392059,708.394836 505.230743,708.566956 
	C496.871185,717.483704 488.333405,713.883240 479.846802,708.876587 
	C475.809814,706.494995 472.677582,706.606262 468.188141,709.163818 
	C464.331879,711.360718 458.650024,710.879089 453.820068,710.648193 
	C450.811432,710.504333 450.296844,708.308411 452.662292,705.770569 
	C453.846466,704.500122 454.248352,702.500610 455.005493,700.432007 
	C465.769287,691.748352 476.531647,683.463562 487.617462,675.075195 
z"/>
<path fill="#7D46A7" opacity="1.000000" stroke="none" 
	d="
M695.449951,565.977295 
	C689.413574,563.151611 685.030701,567.344604 680.906006,569.715759 
	C676.367981,572.324585 671.038757,573.237427 666.612976,569.882996 
	C665.481262,569.025208 663.799988,567.856995 662.717896,568.142944 
	C657.159790,569.612122 652.522888,566.803040 647.697388,565.421448 
	C644.849121,562.755554 653.343628,559.524902 646.801880,556.892578 
	C657.028442,547.538391 667.605957,538.327332 678.500732,529.011841 
	C678.925110,530.177429 679.628113,531.983704 679.044556,532.632263 
	C674.576538,537.597656 674.711853,540.135498 681.181091,542.209961 
	C685.782654,543.685425 691.008606,545.973755 695.881958,542.179626 
	C698.121155,543.924377 700.258240,545.589600 702.395386,547.254761 
	C702.429932,546.715698 702.464478,546.176575 702.499023,545.637512 
	C704.589905,545.044312 706.668640,544.403870 708.773926,543.867004 
	C714.669495,542.363647 719.726868,539.644592 723.469055,533.478210 
	C725.010864,534.731689 726.487366,535.932068 727.966064,537.501343 
	C727.753662,538.164246 727.539062,538.458191 726.784302,538.890137 
	C725.826477,539.365112 725.408813,539.702148 724.991150,540.039185 
	C717.202820,546.946533 709.414490,553.853943 701.300903,560.493958 
	C699.948547,559.579712 698.921570,558.932861 697.894531,558.286011 
	C697.704346,560.252747 697.514099,562.219482 697.323853,564.186218 
	C696.791626,564.750244 696.259399,565.314209 695.449951,565.977295 
z"/>
<path fill="#6249AA" opacity="1.000000" stroke="none" 
	d="
M435.622772,597.280640 
	C436.480133,597.813232 437.150482,598.713074 437.210541,598.793701 
	C443.118683,597.403442 448.552643,595.337280 454.082947,595.035278 
	C460.143036,594.704285 466.411163,595.460632 472.362427,596.770569 
	C476.658752,597.716248 480.007965,596.868469 483.593567,594.944092 
	C486.317108,593.482361 489.229675,592.352905 492.127319,591.258789 
	C492.521057,591.110168 493.317596,592.028198 493.994995,592.814209 
	C484.050354,606.357361 474.637177,620.072449 461.442200,630.457214 
	C450.754852,638.868408 442.053192,634.874878 438.298157,621.669983 
	C436.002136,613.595825 434.895538,605.837769 435.622772,597.280640 
z"/>
<path fill="#6249AA" opacity="1.000000" stroke="none" 
	d="
M413.527954,607.027466 
	C415.189148,613.877319 415.865631,621.192200 418.813782,627.434204 
	C421.304962,632.708618 425.781708,637.642761 430.566284,641.071838 
	C435.543121,644.638672 436.981873,648.048584 434.881378,653.431580 
	C434.522339,654.351685 434.301331,655.325684 433.509705,656.649536 
	C431.126526,657.286926 429.250214,657.549561 427.373871,657.812134 
	C427.693665,658.161743 428.013428,658.511353 428.333221,658.861023 
	C426.628632,660.520203 424.813202,663.657532 423.241882,663.539734 
	C419.655792,663.270752 415.896240,661.902527 412.760437,660.046204 
	C409.898041,658.351685 407.707764,657.760315 405.332977,660.215942 
	C402.698212,662.940430 400.708923,661.898865 398.121796,659.841064 
	C396.224579,658.332031 393.453369,657.921753 391.071716,657.021790 
	C394.392822,640.938538 397.713928,624.855286 401.526001,608.405029 
	C404.610565,609.816223 407.137177,610.068420 409.866364,608.136780 
	C410.853882,607.437805 412.294220,607.378601 413.527954,607.027466 
z"/>
<path fill="#7D46A7" opacity="1.000000" stroke="none" 
	d="
M452.715149,534.255127 
	C454.364685,533.684509 456.158325,533.828918 457.132599,533.004700 
	C462.546082,528.425171 463.828552,528.199585 469.542572,531.647827 
	C469.922180,531.876892 470.495178,531.785522 471.607391,531.918396 
	C471.170410,530.389587 470.817627,529.155334 470.366180,527.575928 
	C472.042145,527.083618 473.720276,526.252869 475.418976,526.208435 
	C476.584015,526.177917 477.791382,527.214539 478.954529,527.822510 
	C480.045227,528.392639 481.742676,529.794189 482.077393,529.515198 
	C486.162628,526.110474 490.278015,527.345764 494.725189,528.579041 
	C496.351074,529.029907 499.049500,528.079651 500.311890,526.819946 
	C502.419525,524.716736 503.200195,525.121704 504.062805,527.911438 
	C503.364288,531.609497 502.608856,534.954163 501.356445,538.743347 
	C500.494843,540.760376 500.130249,542.333008 499.765686,543.905579 
	C499.110352,546.059021 498.455017,548.212402 497.343628,550.674805 
	C496.593048,550.997314 496.298431,551.004395 496.003662,551.004883 
	C495.672760,551.020264 495.151306,550.905151 495.038391,551.069946 
	C490.404144,557.834167 482.937561,554.152771 476.934357,555.851318 
	C472.411865,557.131042 467.513092,557.120544 462.770020,557.556274 
	C461.351227,557.686584 459.832031,557.085510 458.468658,557.361694 
	C456.934814,557.672363 455.261322,558.297424 454.113373,559.311707 
	C451.263062,561.830200 448.762085,564.742798 445.926453,567.279907 
	C445.202850,567.927368 443.755615,567.765991 442.238953,567.959351 
	C445.385010,556.802612 448.932953,545.662781 452.715149,534.255127 
z"/>
<path fill="#7347A9" opacity="1.000000" stroke="none" 
	d="
M413.634949,606.577148 
	C412.294220,607.378601 410.853882,607.437805 409.866364,608.136780 
	C407.137177,610.068420 404.610565,609.816223 401.667511,608.029114 
	C402.318176,602.557739 399.641388,599.301819 395.388519,596.110474 
	C379.510529,584.195679 363.925262,571.890747 348.083344,559.433655 
	C350.059692,559.051514 352.400909,558.349243 354.263336,559.005554 
	C358.992859,560.672424 363.503052,562.958984 368.116852,564.960999 
	C368.551666,565.149719 369.315796,564.886353 369.560852,565.160339 
	C375.308014,571.586243 382.409698,567.126770 388.859039,567.480713 
	C395.823853,567.862915 402.825867,567.567200 410.028564,567.567200 
	C410.629425,566.711731 411.869995,564.945374 413.110535,563.179077 
	C414.442993,564.791138 415.775421,566.403137 417.274628,568.216980 
	C417.931000,567.738159 419.059753,566.914795 420.521149,566.047302 
	C418.989319,573.919678 416.853058,581.785217 415.355591,589.770508 
	C414.349640,595.134888 414.248138,600.668762 413.634949,606.577148 
z"/>
<path fill="#5549AD" opacity="1.000000" stroke="none" 
	d="
M635.006348,666.376709 
	C636.374329,663.301941 637.719116,660.616028 639.425171,657.208557 
	C641.270325,657.745056 643.815125,658.484985 646.773438,659.345093 
	C647.301025,658.585938 648.104004,657.430420 649.065918,656.046326 
	C656.770081,659.451355 664.352356,659.788940 671.699341,654.035156 
	C674.823853,663.915039 677.638245,673.815491 680.309021,683.754456 
	C680.852478,685.776611 680.855103,687.944153 681.162903,690.472656 
	C677.876465,693.766541 674.534241,696.632385 671.094482,699.581726 
	C669.449707,698.792358 667.584473,697.897156 665.340515,696.594971 
	C663.752930,695.460754 662.583679,694.654602 661.326904,694.022644 
	C658.580383,692.641663 654.565125,692.061707 653.285950,689.863770 
	C651.023315,685.976318 649.498779,686.547974 646.646484,688.997192 
	C645.183350,687.397217 644.238464,685.693787 642.989502,684.254150 
	C641.652832,682.713562 640.029602,681.421570 638.531433,680.021057 
	C637.348633,675.602600 636.165894,671.184082 635.006348,666.376709 
z"/>
<path fill="#5549AD" opacity="1.000000" stroke="none" 
	d="
M390.880310,657.349854 
	C393.453369,657.921753 396.224579,658.332031 398.121796,659.841064 
	C400.708923,661.898865 402.698212,662.940430 405.332977,660.215942 
	C407.707764,657.760315 409.898041,658.351685 412.760437,660.046204 
	C415.896240,661.902527 419.655792,663.270752 423.241882,663.539734 
	C424.813202,663.657532 426.628632,660.520203 428.333221,658.861023 
	C428.013428,658.511353 427.693665,658.161743 427.373871,657.812134 
	C429.250214,657.549561 431.126526,657.286926 433.359680,657.016418 
	C430.639160,670.823364 427.561859,684.638245 424.200806,698.376831 
	C423.055054,696.714966 421.612244,695.188599 421.443512,693.532471 
	C420.996552,689.145020 418.354095,688.838623 414.860321,688.953491 
	C409.232269,689.138611 403.590027,689.135925 397.960938,688.970276 
	C393.362274,688.834961 388.774048,688.345703 384.181183,688.013367 
	C386.350403,677.901550 388.519653,667.789673 390.880310,657.349854 
z"/>
<path fill="#4A4AAE" opacity="1.000000" stroke="none" 
	d="
M384.028809,688.371460 
	C388.774048,688.345703 393.362274,688.834961 397.960938,688.970276 
	C403.590027,689.135925 409.232269,689.138611 414.860321,688.953491 
	C418.354095,688.838623 420.996552,689.145020 421.443512,693.532471 
	C421.612244,695.188599 423.055054,696.714966 423.963898,698.662842 
	C422.973419,704.208008 421.936157,709.390747 420.701355,714.874817 
	C416.817902,712.425781 414.602478,715.781250 412.373688,717.506653 
	C409.743042,719.543030 408.114777,719.748840 404.625305,718.458618 
	C399.195770,716.450989 393.495544,712.778320 386.794617,717.164429 
	C384.425690,718.714966 379.927185,717.274231 377.424988,720.944946 
	C379.350555,710.245361 381.613495,699.487427 384.028809,688.371460 
z"/>
<path fill="#6249AA" opacity="1.000000" stroke="none" 
	d="
M647.030945,689.009766 
	C649.498779,686.547974 651.023315,685.976318 653.285950,689.863770 
	C654.565125,692.061707 658.580383,692.641663 661.326904,694.022644 
	C662.583679,694.654602 663.752930,695.460754 664.973633,696.586548 
	C664.188965,698.584717 663.412109,700.194214 662.592102,701.781494 
	C660.801208,705.247803 657.904602,705.478210 654.591797,704.488953 
	C652.700134,703.924011 650.799438,703.389038 648.296692,702.665344 
	C648.146912,701.844971 647.841064,700.169861 647.268555,697.033691 
	C646.185303,699.630676 645.663818,700.880981 645.102112,702.478638 
	C644.085938,699.478699 643.109924,696.131287 642.513367,692.391479 
	C644.272217,691.002625 645.651550,690.006165 647.030945,689.009766 
M647.482117,695.595032 
	C647.482117,695.595032 647.409729,695.476196 647.482117,695.595032 
z"/>
<path fill="#9146A4" opacity="1.000000" stroke="none" 
	d="
M347.057556,502.310913 
	C342.264984,506.625854 340.572113,506.027100 338.903290,500.022919 
	C338.454987,498.410034 337.086029,497.053009 336.125061,495.207794 
	C339.707489,497.236115 343.304565,499.635193 347.057556,502.310913 
z"/>
<path fill="#4A4AAE" opacity="1.000000" stroke="none" 
	d="
M646.646484,688.997192 
	C645.651550,690.006165 644.272217,691.002625 642.520874,691.997681 
	C641.016174,688.266174 639.883423,684.536011 638.641113,680.413452 
	C640.029602,681.421570 641.652832,682.713562 642.989502,684.254150 
	C644.238464,685.693787 645.183350,687.397217 646.646484,688.997192 
z"/>
<path fill="#4A4AAE" opacity="1.000000" stroke="none" 
	d="
M469.048889,736.331543 
	C471.741455,735.636353 474.480469,735.270508 477.596313,734.948303 
	C475.880768,736.683655 473.788422,738.375427 471.349670,740.036987 
	C470.367279,738.891418 469.731293,737.776184 469.048889,736.331543 
z"/>
<path fill="#7347A9" opacity="1.000000" stroke="none" 
	d="
M697.619568,564.094055 
	C697.514099,562.219482 697.704346,560.252747 697.894531,558.286011 
	C698.921570,558.932861 699.948547,559.579712 700.986084,560.607422 
	C699.969482,561.992798 698.942383,562.997314 697.619568,564.094055 
z"/>
<path fill="#4A4AAE" opacity="1.000000" stroke="none" 
	d="
M464.263123,745.748413 
	C463.793762,744.395447 463.640289,742.951904 463.430267,740.976135 
	C465.459320,740.976135 467.253876,740.976135 469.463928,740.960388 
	C468.112610,742.515747 466.345825,744.086792 464.263123,745.748413 
z"/>
<path fill="#7347A9" opacity="1.000000" stroke="none" 
	d="
M418.965942,557.658997 
	C416.553162,557.953430 414.035156,557.953430 411.517151,557.953430 
	C411.415558,557.432678 411.313965,556.911926 411.212402,556.391174 
	C412.364563,555.896179 413.516754,555.401184 415.081116,554.844727 
	C416.615753,555.643677 417.738220,556.504150 418.965942,557.658997 
z"/>
<path fill="#8546A5" opacity="1.000000" stroke="none" 
	d="
M256.131531,487.332581 
	C257.292267,483.352051 259.267456,486.753021 260.911652,486.605072 
	C260.768585,487.721497 260.625549,488.837891 260.118134,490.021545 
	C258.596680,489.259216 257.439575,488.429718 256.131531,487.332581 
z"/>
<path fill="#9445A3" opacity="1.000000" stroke="none" 
	d="
M264.958862,494.355896 
	C267.044861,493.761139 269.288544,493.439972 271.532227,493.118774 
	C271.740234,493.551971 271.948242,493.985168 272.156250,494.418365 
	C271.218140,495.234985 270.280060,496.051575 268.987183,497.018066 
	C267.460449,496.321747 266.288483,495.475586 264.958862,494.355896 
z"/>
<path fill="#9146A4" opacity="1.000000" stroke="none" 
	d="
M336.113037,494.571045 
	C334.450012,493.841766 332.734497,492.795563 331.013184,491.376526 
	C331.774536,491.005798 332.541748,491.007935 333.692627,491.017853 
	C334.737701,492.101807 335.399109,493.177979 336.113037,494.571045 
z"/>
<path fill="#7347A9" opacity="1.000000" stroke="none" 
	d="
M421.239929,563.768860 
	C420.385468,562.248108 419.706970,560.467468 419.037964,558.307800 
	C419.836975,559.788818 420.626434,561.648926 421.239929,563.768860 
z"/>
<path fill="#9146A4" opacity="1.000000" stroke="none" 
	d="
M499.989685,543.664368 
	C500.130249,542.333008 500.494843,540.760376 501.135559,539.089905 
	C501.012360,540.469055 500.613037,541.946106 499.989685,543.664368 
z"/>
<path fill="#4A4AAE" opacity="1.000000" stroke="none" 
	d="
M505.249573,713.477539 
	C505.583069,712.778687 506.188324,712.017700 507.125122,711.407349 
	C506.811523,712.177124 506.166412,712.796265 505.249573,713.477539 
z"/>
<path fill="#9146A4" opacity="1.000000" stroke="none" 
	d="
M496.017090,551.438232 
	C496.298431,551.004395 496.593048,550.997314 497.106873,550.976746 
	C497.126282,551.719116 496.926392,552.468506 496.486450,553.407715 
	C496.174408,553.022278 496.102448,552.446899 496.017090,551.438232 
z"/>
<path fill="#8546A5" opacity="1.000000" stroke="none" 
	d="
M725.284546,540.079590 
	C725.408813,539.702148 725.826477,539.365112 726.521790,538.983276 
	C726.392273,539.332336 725.985107,539.726135 725.284546,540.079590 
z"/>
<path fill="#4A4AAE" opacity="1.000000" stroke="none" 
	d="
M419.119751,716.874939 
	C419.042664,716.761658 419.138672,716.554443 419.409790,716.272278 
	C419.450745,716.375305 419.353363,716.569885 419.119751,716.874939 
z"/>
<path fill="#4A4AAE" opacity="1.000000" stroke="none" 
	d="
M470.116943,740.594238 
	C470.102753,740.464661 470.315796,740.265076 470.800171,740.065674 
	C470.782440,740.174561 470.539978,740.327393 470.116943,740.594238 
z"/>
<path fill="#4A4AAE" opacity="1.000000" stroke="none" 
	d="
M461.148560,747.421021 
	C461.158417,747.333679 461.334839,747.203247 461.679688,747.031860 
	C461.678375,747.131287 461.500732,747.260315 461.148560,747.421021 
z"/>
<path fill="#334BB1" opacity="1.000000" stroke="none" 
	d="
M702.619141,766.673950 
	C702.362122,766.715027 702.211182,766.482544 702.104614,765.992676 
	C702.387878,765.900452 702.579895,766.122192 702.619141,766.673950 
z"/>
<path fill="#4A4AAE" opacity="1.000000" stroke="none" 
	d="
M647.445923,695.535645 
	C647.409729,695.476196 647.482117,695.595032 647.445923,695.535645 
z"/>
</svg>